solid OpenSCAD_Model
  facet normal -1 0 0
    outer loop
      vertex 6.115 4 1.65685
      vertex 6.115 31.799 -12
      vertex 6.115 17.6569 -12
    endloop
  endfacet
  facet normal -1 0 0
    outer loop
      vertex 6.115 31.799 -12
      vertex 6.115 4 1.65685
      vertex 6.115 4 15.799
    endloop
  endfacet
  facet normal 1.09954e-07 0.707107 0.707107
    outer loop
      vertex 16.115 31.799 -12
      vertex 14.615 25 -5.20101
      vertex 16.115 4 15.799
    endloop
  endfacet
  facet normal 0 0.707107 0.707107
    outer loop
      vertex 16.115 31.799 -12
      vertex 14.0594 26.8922 -7.09325
      vertex 14.615 25 -5.20101
    endloop
  endfacet
  facet normal 3.3195e-07 0.707107 0.707107
    outer loop
      vertex 16.115 31.799 -12
      vertex 12.569 28.1837 -8.38472
      vertex 14.0594 26.8922 -7.09325
    endloop
  endfacet
  facet normal -2.79256e-07 0.707107 0.707107
    outer loop
      vertex 16.115 31.799 -12
      vertex 10.6169 28.4644 -8.66538
      vertex 12.569 28.1837 -8.38472
    endloop
  endfacet
  facet normal -0 0.707107 0.707107
    outer loop
      vertex 6.115 31.799 -12
      vertex 10.6169 28.4644 -8.66538
      vertex 16.115 31.799 -12
    endloop
  endfacet
  facet normal -1.81603e-06 0.707107 0.707107
    outer loop
      vertex 7.75677 25.9861 -6.18707
      vertex 6.115 31.799 -12
      vertex 7.75677 24.0139 -4.21495
    endloop
  endfacet
  facet normal 4.39376e-07 0.707107 0.707107
    outer loop
      vertex 8.82299 27.6451 -7.84613
      vertex 6.115 31.799 -12
      vertex 7.75677 25.9861 -6.18707
    endloop
  endfacet
  facet normal -2.32539e-07 0.707107 0.707107
    outer loop
      vertex 10.6169 28.4644 -8.66538
      vertex 6.115 31.799 -12
      vertex 8.82299 27.6451 -7.84613
    endloop
  endfacet
  facet normal 8.20133e-07 0.707107 0.707107
    outer loop
      vertex 14.0594 23.1078 -3.30877
      vertex 16.115 4 15.799
      vertex 14.615 25 -5.20101
    endloop
  endfacet
  facet normal -3.64918e-07 0.707107 0.707107
    outer loop
      vertex 12.569 21.8163 -2.0173
      vertex 16.115 4 15.799
      vertex 14.0594 23.1078 -3.30877
    endloop
  endfacet
  facet normal 2.97833e-07 0.707107 0.707107
    outer loop
      vertex 10.6169 21.5356 -1.73663
      vertex 16.115 4 15.799
      vertex 12.569 21.8163 -2.0173
    endloop
  endfacet
  facet normal -3.19948e-07 0.707107 0.707107
    outer loop
      vertex 6.115 4 15.799
      vertex 10.6169 21.5356 -1.73663
      vertex 8.82299 22.3549 -2.55589
    endloop
  endfacet
  facet normal -6.77852e-07 0.707107 0.707107
    outer loop
      vertex 6.115 4 15.799
      vertex 8.82299 22.3549 -2.55589
      vertex 7.75677 24.0139 -4.21495
    endloop
  endfacet
  facet normal 0 0.707107 0.707107
    outer loop
      vertex 10.6169 21.5356 -1.73663
      vertex 6.115 4 15.799
      vertex 16.115 4 15.799
    endloop
  endfacet
  facet normal 5.01088e-07 0.707107 0.707107
    outer loop
      vertex 6.115 4 15.799
      vertex 7.75677 24.0139 -4.21495
      vertex 6.115 31.799 -12
    endloop
  endfacet
  facet normal 1 0 0
    outer loop
      vertex 16.115 4 15.799
      vertex 16.115 17.6569 -12
      vertex 16.115 31.799 -12
    endloop
  endfacet
  facet normal 1 0 0
    outer loop
      vertex 16.115 17.6569 -12
      vertex 16.115 4 15.799
      vertex 16.115 4 1.65685
    endloop
  endfacet
  facet normal 0 -0.707107 -0.707107
    outer loop
      vertex 6.115 17.6569 -12
      vertex 16.115 4 1.65685
      vertex 6.115 4 1.65685
    endloop
  endfacet
  facet normal 0 -0.707107 -0.707107
    outer loop
      vertex 16.115 4 1.65685
      vertex 6.115 17.6569 -12
      vertex 16.115 17.6569 -12
    endloop
  endfacet
  facet normal 0 0 -1
    outer loop
      vertex 16.115 17.6569 -12
      vertex 12.615 25 -12
      vertex 16.115 31.799 -12
    endloop
  endfacet
  facet normal 0 0 -1
    outer loop
      vertex 16.115 17.6569 -12
      vertex 11.5785 23.5734 -12
      vertex 12.615 25 -12
    endloop
  endfacet
  facet normal 0 0 -1
    outer loop
      vertex 6.115 17.6569 -12
      vertex 11.5785 23.5734 -12
      vertex 16.115 17.6569 -12
    endloop
  endfacet
  facet normal 0 0 -1
    outer loop
      vertex 6.115 31.799 -12
      vertex 9.90147 24.1183 -12
      vertex 6.115 17.6569 -12
    endloop
  endfacet
  facet normal -0 0 -1
    outer loop
      vertex 11.5785 23.5734 -12
      vertex 6.115 17.6569 -12
      vertex 9.90147 24.1183 -12
    endloop
  endfacet
  facet normal 0 0 -1
    outer loop
      vertex 11.5785 26.4266 -12
      vertex 16.115 31.799 -12
      vertex 12.615 25 -12
    endloop
  endfacet
  facet normal 0 0 -1
    outer loop
      vertex 6.115 31.799 -12
      vertex 11.5785 26.4266 -12
      vertex 9.90147 25.8817 -12
    endloop
  endfacet
  facet normal 0 0 -1
    outer loop
      vertex 11.5785 26.4266 -12
      vertex 6.115 31.799 -12
      vertex 16.115 31.799 -12
    endloop
  endfacet
  facet normal 0 0 -1
    outer loop
      vertex 9.90147 24.1183 -12
      vertex 6.115 31.799 -12
      vertex 9.90147 25.8817 -12
    endloop
  endfacet
  facet normal -0.959493 -0.281733 0
    outer loop
      vertex 14.615 25 -10
      vertex 14.0594 26.8922 -7.09325
      vertex 14.0594 26.8922 -10
    endloop
  endfacet
  facet normal -0.959493 -0.281733 0
    outer loop
      vertex 14.0594 26.8922 -7.09325
      vertex 14.615 25 -10
      vertex 14.615 25 -5.20101
    endloop
  endfacet
  facet normal 1 0 0
    outer loop
      vertex 7.75677 24.0139 -10
      vertex 7.75677 25.9861 -6.18707
      vertex 7.75677 24.0139 -4.21495
    endloop
  endfacet
  facet normal 1 0 0
    outer loop
      vertex 7.75677 25.9861 -6.18707
      vertex 7.75677 24.0139 -10
      vertex 7.75677 25.9861 -10
    endloop
  endfacet
  facet normal 0 0 1
    outer loop
      vertex 12.615 25 -10
      vertex 14.615 25 -10
      vertex 14.0594 26.8922 -10
    endloop
  endfacet
  facet normal 0 0 1
    outer loop
      vertex 14.615 25 -10
      vertex 12.615 25 -10
      vertex 14.0594 23.1078 -10
    endloop
  endfacet
  facet normal 0 0 1
    outer loop
      vertex 11.5785 26.4266 -10
      vertex 14.0594 26.8922 -10
      vertex 12.569 28.1837 -10
    endloop
  endfacet
  facet normal 0 0 1
    outer loop
      vertex 14.0594 26.8922 -10
      vertex 11.5785 26.4266 -10
      vertex 12.615 25 -10
    endloop
  endfacet
  facet normal 0 0 1
    outer loop
      vertex 10.6169 28.4644 -10
      vertex 11.5785 26.4266 -10
      vertex 12.569 28.1837 -10
    endloop
  endfacet
  facet normal 0 0 1
    outer loop
      vertex 10.6169 28.4644 -10
      vertex 9.90147 25.8817 -10
      vertex 11.5785 26.4266 -10
    endloop
  endfacet
  facet normal -0 0 1
    outer loop
      vertex 7.75677 25.9861 -10
      vertex 9.90147 25.8817 -10
      vertex 8.82299 27.6451 -10
    endloop
  endfacet
  facet normal -0 0 1
    outer loop
      vertex 8.82299 27.6451 -10
      vertex 9.90147 25.8817 -10
      vertex 10.6169 28.4644 -10
    endloop
  endfacet
  facet normal -0 0 1
    outer loop
      vertex 11.5785 23.5734 -10
      vertex 14.0594 23.1078 -10
      vertex 12.615 25 -10
    endloop
  endfacet
  facet normal 0 0 1
    outer loop
      vertex 14.0594 23.1078 -10
      vertex 11.5785 23.5734 -10
      vertex 12.569 21.8163 -10
    endloop
  endfacet
  facet normal 0 0 1
    outer loop
      vertex 11.5785 23.5734 -10
      vertex 10.6169 21.5356 -10
      vertex 12.569 21.8163 -10
    endloop
  endfacet
  facet normal 0 0 1
    outer loop
      vertex 9.90147 24.1183 -10
      vertex 10.6169 21.5356 -10
      vertex 11.5785 23.5734 -10
    endloop
  endfacet
  facet normal 0 0 1
    outer loop
      vertex 9.90147 25.8817 -10
      vertex 7.75677 25.9861 -10
      vertex 9.90147 24.1183 -10
    endloop
  endfacet
  facet normal 0 0 1
    outer loop
      vertex 9.90147 24.1183 -10
      vertex 8.82299 22.3549 -10
      vertex 10.6169 21.5356 -10
    endloop
  endfacet
  facet normal 0 0 1
    outer loop
      vertex 7.75677 24.0139 -10
      vertex 9.90147 24.1183 -10
      vertex 7.75677 25.9861 -10
    endloop
  endfacet
  facet normal 0 0 1
    outer loop
      vertex 9.90147 24.1183 -10
      vertex 7.75677 24.0139 -10
      vertex 8.82299 22.3549 -10
    endloop
  endfacet
  facet normal 0.415415 -0.909632 0
    outer loop
      vertex 8.82299 27.6451 -10
      vertex 10.6169 28.4644 -8.66538
      vertex 8.82299 27.6451 -7.84613
    endloop
  endfacet
  facet normal 0.415415 -0.909632 0
    outer loop
      vertex 10.6169 28.4644 -8.66538
      vertex 8.82299 27.6451 -10
      vertex 10.6169 28.4644 -10
    endloop
  endfacet
  facet normal 0.841254 -0.540641 0
    outer loop
      vertex 7.75677 25.9861 -10
      vertex 8.82299 27.6451 -7.84613
      vertex 7.75677 25.9861 -6.18707
    endloop
  endfacet
  facet normal 0.841254 -0.540641 0
    outer loop
      vertex 8.82299 27.6451 -7.84613
      vertex 7.75677 25.9861 -10
      vertex 8.82299 27.6451 -10
    endloop
  endfacet
  facet normal -0.142315 0.989821 0
    outer loop
      vertex 10.6169 21.5356 -10
      vertex 12.569 21.8163 -2.0173
      vertex 12.569 21.8163 -10
    endloop
  endfacet
  facet normal -0.142315 0.989821 0
    outer loop
      vertex 12.569 21.8163 -2.0173
      vertex 10.6169 21.5356 -10
      vertex 10.6169 21.5356 -1.73663
    endloop
  endfacet
  facet normal -0.142315 -0.989821 0
    outer loop
      vertex 12.569 28.1837 -10
      vertex 10.6169 28.4644 -8.66538
      vertex 10.6169 28.4644 -10
    endloop
  endfacet
  facet normal -0.142315 -0.989821 0
    outer loop
      vertex 10.6169 28.4644 -8.66538
      vertex 12.569 28.1837 -10
      vertex 12.569 28.1837 -8.38472
    endloop
  endfacet
  facet normal -0.654861 -0.75575 0
    outer loop
      vertex 14.0594 26.8922 -10
      vertex 12.569 28.1837 -8.38472
      vertex 12.569 28.1837 -10
    endloop
  endfacet
  facet normal -0.654861 -0.75575 0
    outer loop
      vertex 12.569 28.1837 -8.38472
      vertex 14.0594 26.8922 -10
      vertex 14.0594 26.8922 -7.09325
    endloop
  endfacet
  facet normal -0.959493 0.281733 0
    outer loop
      vertex 14.0594 23.1078 -10
      vertex 14.615 25 -5.20101
      vertex 14.615 25 -10
    endloop
  endfacet
  facet normal -0.959493 0.281733 0
    outer loop
      vertex 14.615 25 -5.20101
      vertex 14.0594 23.1078 -10
      vertex 14.0594 23.1078 -3.30877
    endloop
  endfacet
  facet normal -0.654861 0.75575 0
    outer loop
      vertex 12.569 21.8163 -10
      vertex 14.0594 23.1078 -3.30877
      vertex 14.0594 23.1078 -10
    endloop
  endfacet
  facet normal -0.654861 0.75575 0
    outer loop
      vertex 14.0594 23.1078 -3.30877
      vertex 12.569 21.8163 -10
      vertex 12.569 21.8163 -2.0173
    endloop
  endfacet
  facet normal 0.415414 0.909632 -0
    outer loop
      vertex 10.6169 21.5356 -10
      vertex 8.82299 22.3549 -2.55589
      vertex 10.6169 21.5356 -1.73663
    endloop
  endfacet
  facet normal 0.415414 0.909632 0
    outer loop
      vertex 8.82299 22.3549 -2.55589
      vertex 10.6169 21.5356 -10
      vertex 8.82299 22.3549 -10
    endloop
  endfacet
  facet normal 0.841254 0.540641 -0
    outer loop
      vertex 8.82299 22.3549 -10
      vertex 7.75677 24.0139 -4.21495
      vertex 8.82299 22.3549 -2.55589
    endloop
  endfacet
  facet normal 0.841254 0.540641 0
    outer loop
      vertex 7.75677 24.0139 -4.21495
      vertex 8.82299 22.3549 -10
      vertex 7.75677 24.0139 -10
    endloop
  endfacet
  facet normal -0.809017 -0.587786 0
    outer loop
      vertex 12.615 25 -12
      vertex 11.5785 26.4266 -10
      vertex 11.5785 26.4266 -12
    endloop
  endfacet
  facet normal -0.809017 -0.587786 0
    outer loop
      vertex 11.5785 26.4266 -10
      vertex 12.615 25 -12
      vertex 12.615 25 -10
    endloop
  endfacet
  facet normal 1 -0 0
    outer loop
      vertex 9.90147 24.1183 -10
      vertex 9.90147 25.8817 -12
      vertex 9.90147 25.8817 -10
    endloop
  endfacet
  facet normal 1 0 0
    outer loop
      vertex 9.90147 25.8817 -12
      vertex 9.90147 24.1183 -10
      vertex 9.90147 24.1183 -12
    endloop
  endfacet
  facet normal 0.309017 -0.951057 0
    outer loop
      vertex 9.90147 25.8817 -12
      vertex 11.5785 26.4266 -10
      vertex 9.90147 25.8817 -10
    endloop
  endfacet
  facet normal 0.309017 -0.951057 0
    outer loop
      vertex 11.5785 26.4266 -10
      vertex 9.90147 25.8817 -12
      vertex 11.5785 26.4266 -12
    endloop
  endfacet
  facet normal -0.809017 0.587785 0
    outer loop
      vertex 11.5785 23.5734 -12
      vertex 12.615 25 -10
      vertex 12.615 25 -12
    endloop
  endfacet
  facet normal -0.809017 0.587785 0
    outer loop
      vertex 12.615 25 -10
      vertex 11.5785 23.5734 -12
      vertex 11.5785 23.5734 -10
    endloop
  endfacet
  facet normal 0.309017 0.951057 -0
    outer loop
      vertex 11.5785 23.5734 -12
      vertex 9.90147 24.1183 -10
      vertex 11.5785 23.5734 -10
    endloop
  endfacet
  facet normal 0.309017 0.951057 0
    outer loop
      vertex 9.90147 24.1183 -10
      vertex 11.5785 23.5734 -12
      vertex 9.90147 24.1183 -12
    endloop
  endfacet
  facet normal -1 0 0
    outer loop
      vertex 0 0 0
      vertex 0 4 19.85
      vertex 0 4 0
    endloop
  endfacet
  facet normal -1 -0 0
    outer loop
      vertex 0 4 19.85
      vertex 0 0 0
      vertex 0 0 19.85
    endloop
  endfacet
  facet normal -0 0 1
    outer loop
      vertex 0 4 19.85
      vertex 2.6 0 19.85
      vertex 2.6 4 19.85
    endloop
  endfacet
  facet normal 0 0 1
    outer loop
      vertex 2.6 0 19.85
      vertex 0 4 19.85
      vertex 0 0 19.85
    endloop
  endfacet
  facet normal 1 -0 0
    outer loop
      vertex 22.23 0 16.85
      vertex 22.23 4 0
      vertex 22.23 4 16.85
    endloop
  endfacet
  facet normal 1 0 0
    outer loop
      vertex 22.23 4 0
      vertex 22.23 0 16.85
      vertex 22.23 0 0
    endloop
  endfacet
  facet normal 0 1 -0
    outer loop
      vertex 16.115 4 15.799
      vertex 5.6 4 16.85
      vertex 22.23 4 16.85
    endloop
  endfacet
  facet normal 0 1 -0
    outer loop
      vertex 6.115 4 15.799
      vertex 5.6 4 16.85
      vertex 16.115 4 15.799
    endloop
  endfacet
  facet normal 0 1 0
    outer loop
      vertex 22.23 4 16.85
      vertex 20.6113 4 3.19014
      vertex 16.115 4 15.799
    endloop
  endfacet
  facet normal 0 1 -0
    outer loop
      vertex 22.23 4 0
      vertex 20.6113 4 3.19014
      vertex 22.23 4 16.85
    endloop
  endfacet
  facet normal 0 1 0
    outer loop
      vertex 21.0199 4 1.93236
      vertex 22.23 4 0
      vertex 19.95 4 1.155
    endloop
  endfacet
  facet normal 0 1 0
    outer loop
      vertex 20.6113 4 3.19014
      vertex 22.23 4 0
      vertex 21.0199 4 1.93236
    endloop
  endfacet
  facet normal 0 1 0
    outer loop
      vertex 5.6 4 16.9789
      vertex 5.6 4 16.85
      vertex 5.53553 4 16.9145
    endloop
  endfacet
  facet normal 0 1 -0
    outer loop
      vertex 2.94126 4 16.4601
      vertex 2.6 4 19.85
      vertex 5.53553 4 16.9145
    endloop
  endfacet
  facet normal 0 1 0
    outer loop
      vertex 2.94126 4 16.4601
      vertex 5.53553 4 16.9145
      vertex 5.6 4 16.85
    endloop
  endfacet
  facet normal 0 1 0
    outer loop
      vertex 1.61874 4 16.4601
      vertex 2.6 4 19.85
      vertex 2.94126 4 16.4601
    endloop
  endfacet
  facet normal 0 1 0
    outer loop
      vertex 2.6 4 19.85
      vertex 1.61874 4 16.4601
      vertex 0 4 19.85
    endloop
  endfacet
  facet normal 0 1 -0
    outer loop
      vertex 1.21006 4 15.2024
      vertex 0 4 19.85
      vertex 1.61874 4 16.4601
    endloop
  endfacet
  facet normal 0 1 0
    outer loop
      vertex 0 4 0
      vertex 2.28 4 14.425
      vertex 6.115 4 1.65685
    endloop
  endfacet
  facet normal 0 1 0
    outer loop
      vertex 16.115 4 1.65685
      vertex 22.23 4 0
      vertex 6.115 4 1.65685
    endloop
  endfacet
  facet normal 0 1 0
    outer loop
      vertex 1.21006 4 15.2024
      vertex 0 4 0
      vertex 0 4 19.85
    endloop
  endfacet
  facet normal 0 1 0
    outer loop
      vertex 2.28 4 14.425
      vertex 0 4 0
      vertex 1.21006 4 15.2024
    endloop
  endfacet
  facet normal 0 1 0
    outer loop
      vertex 0 4 0
      vertex 6.115 4 1.65685
      vertex 22.23 4 0
    endloop
  endfacet
  facet normal 0 1 0
    outer loop
      vertex 3.34994 4 15.2024
      vertex 5.6 4 16.85
      vertex 6.115 4 15.799
    endloop
  endfacet
  facet normal 0 1 0
    outer loop
      vertex 5.6 4 16.85
      vertex 3.34994 4 15.2024
      vertex 2.94126 4 16.4601
    endloop
  endfacet
  facet normal 0 1 0
    outer loop
      vertex 6.115 4 15.799
      vertex 2.28 4 14.425
      vertex 3.34994 4 15.2024
    endloop
  endfacet
  facet normal -0 1 0
    outer loop
      vertex 2.28 4 14.425
      vertex 6.115 4 15.799
      vertex 6.115 4 1.65685
    endloop
  endfacet
  facet normal 0 1 -0
    outer loop
      vertex 19.2887 4 3.19014
      vertex 16.115 4 15.799
      vertex 20.6113 4 3.19014
    endloop
  endfacet
  facet normal 0 1 0
    outer loop
      vertex 16.115 4 1.65685
      vertex 19.2887 4 3.19014
      vertex 18.8801 4 1.93236
    endloop
  endfacet
  facet normal 0 1 0
    outer loop
      vertex 19.2887 4 3.19014
      vertex 16.115 4 1.65685
      vertex 16.115 4 15.799
    endloop
  endfacet
  facet normal 0 1 0
    outer loop
      vertex 22.23 4 0
      vertex 16.115 4 1.65685
      vertex 19.95 4 1.155
    endloop
  endfacet
  facet normal 0 1 0
    outer loop
      vertex 19.95 4 1.155
      vertex 16.115 4 1.65685
      vertex 18.8801 4 1.93236
    endloop
  endfacet
  facet normal 0 0 -1
    outer loop
      vertex 0 0 0
      vertex 22.23 4 0
      vertex 22.23 0 0
    endloop
  endfacet
  facet normal -0 0 -1
    outer loop
      vertex 22.23 4 0
      vertex 0 0 0
      vertex 0 4 0
    endloop
  endfacet
  facet normal 0 -1 0
    outer loop
      vertex 1.61874 0 16.4601
      vertex 2.6 0 19.85
      vertex 0 0 19.85
    endloop
  endfacet
  facet normal 0 -1 0
    outer loop
      vertex 2.6 0 19.85
      vertex 2.94126 0 16.4601
      vertex 5.53553 0 16.9145
    endloop
  endfacet
  facet normal 0 -1 0
    outer loop
      vertex 3.34994 0 15.2024
      vertex 5.53553 0 16.9145
      vertex 2.94126 0 16.4601
    endloop
  endfacet
  facet normal 0 -1 -0
    outer loop
      vertex 2.6 0 19.85
      vertex 1.61874 0 16.4601
      vertex 2.94126 0 16.4601
    endloop
  endfacet
  facet normal 0 -1 0
    outer loop
      vertex 0 0 19.85
      vertex 1.21006 0 15.2024
      vertex 1.61874 0 16.4601
    endloop
  endfacet
  facet normal 0 -1 0
    outer loop
      vertex 0 0 0
      vertex 19.2887 0 3.19014
      vertex 2.28 0 14.425
    endloop
  endfacet
  facet normal 0 -1 0
    outer loop
      vertex 0 0 0
      vertex 2.28 0 14.425
      vertex 1.21006 0 15.2024
    endloop
  endfacet
  facet normal 0 -1 -0
    outer loop
      vertex 18.8801 0 1.93236
      vertex 0 0 0
      vertex 19.95 0 1.155
    endloop
  endfacet
  facet normal 0 -1 0
    outer loop
      vertex 19.2887 0 3.19014
      vertex 0 0 0
      vertex 18.8801 0 1.93236
    endloop
  endfacet
  facet normal 0 -1 0
    outer loop
      vertex 0 0 0
      vertex 1.21006 0 15.2024
      vertex 0 0 19.85
    endloop
  endfacet
  facet normal 0 -1 -0
    outer loop
      vertex 5.6 0 16.9789
      vertex 5.53553 0 16.9145
      vertex 5.6 0 16.85
    endloop
  endfacet
  facet normal 0 -1 -0
    outer loop
      vertex 5.53553 0 16.9145
      vertex 3.34994 0 15.2024
      vertex 5.6 0 16.85
    endloop
  endfacet
  facet normal 0 -1 0
    outer loop
      vertex 19.2887 0 3.19014
      vertex 5.6 0 16.85
      vertex 3.34994 0 15.2024
    endloop
  endfacet
  facet normal 0 -1 0
    outer loop
      vertex 19.2887 0 3.19014
      vertex 3.34994 0 15.2024
      vertex 2.28 0 14.425
    endloop
  endfacet
  facet normal 0 -1 0
    outer loop
      vertex 5.6 0 16.85
      vertex 19.2887 0 3.19014
      vertex 22.23 0 16.85
    endloop
  endfacet
  facet normal 0 -1 0
    outer loop
      vertex 20.6113 0 3.19014
      vertex 22.23 0 16.85
      vertex 19.2887 0 3.19014
    endloop
  endfacet
  facet normal 0 -1 0
    outer loop
      vertex 22.23 0 0
      vertex 20.6113 0 3.19014
      vertex 21.0199 0 1.93236
    endloop
  endfacet
  facet normal 0 -1 0
    outer loop
      vertex 20.6113 0 3.19014
      vertex 22.23 0 0
      vertex 22.23 0 16.85
    endloop
  endfacet
  facet normal 0 -1 0
    outer loop
      vertex 19.95 0 1.155
      vertex 22.23 0 0
      vertex 21.0199 0 1.93236
    endloop
  endfacet
  facet normal 0 -1 0
    outer loop
      vertex 22.23 0 0
      vertex 19.95 0 1.155
      vertex 0 0 0
    endloop
  endfacet
  facet normal -0.587785 0 0.809017
    outer loop
      vertex 19.95 4 1.155
      vertex 21.0199 0 1.93236
      vertex 21.0199 4 1.93236
    endloop
  endfacet
  facet normal -0.587785 0 0.809017
    outer loop
      vertex 21.0199 0 1.93236
      vertex 19.95 4 1.155
      vertex 19.95 0 1.155
    endloop
  endfacet
  facet normal -0.951056 0 -0.309018
    outer loop
      vertex 21.0199 0 1.93236
      vertex 20.6113 4 3.19014
      vertex 21.0199 4 1.93236
    endloop
  endfacet
  facet normal -0.951056 -0 -0.309018
    outer loop
      vertex 20.6113 4 3.19014
      vertex 21.0199 0 1.93236
      vertex 20.6113 0 3.19014
    endloop
  endfacet
  facet normal 0 0 -1
    outer loop
      vertex 19.2887 0 3.19014
      vertex 20.6113 4 3.19014
      vertex 20.6113 0 3.19014
    endloop
  endfacet
  facet normal -0 0 -1
    outer loop
      vertex 20.6113 4 3.19014
      vertex 19.2887 0 3.19014
      vertex 19.2887 4 3.19014
    endloop
  endfacet
  facet normal 0.951057 0 -0.309017
    outer loop
      vertex 19.2887 0 3.19014
      vertex 18.8801 4 1.93236
      vertex 19.2887 4 3.19014
    endloop
  endfacet
  facet normal 0.951057 0 -0.309017
    outer loop
      vertex 18.8801 4 1.93236
      vertex 19.2887 0 3.19014
      vertex 18.8801 0 1.93236
    endloop
  endfacet
  facet normal 0.587785 0 0.809017
    outer loop
      vertex 18.8801 4 1.93236
      vertex 19.95 0 1.155
      vertex 19.95 4 1.155
    endloop
  endfacet
  facet normal 0.587785 0 0.809017
    outer loop
      vertex 19.95 0 1.155
      vertex 18.8801 4 1.93236
      vertex 18.8801 0 1.93236
    endloop
  endfacet
  facet normal -0.587785 0 0.809017
    outer loop
      vertex 2.28 4 14.425
      vertex 3.34994 0 15.2024
      vertex 3.34994 4 15.2024
    endloop
  endfacet
  facet normal -0.587785 0 0.809017
    outer loop
      vertex 3.34994 0 15.2024
      vertex 2.28 4 14.425
      vertex 2.28 0 14.425
    endloop
  endfacet
  facet normal -0.951056 0 -0.309017
    outer loop
      vertex 3.34994 0 15.2024
      vertex 2.94126 4 16.4601
      vertex 3.34994 4 15.2024
    endloop
  endfacet
  facet normal -0.951056 -0 -0.309017
    outer loop
      vertex 2.94126 4 16.4601
      vertex 3.34994 0 15.2024
      vertex 2.94126 0 16.4601
    endloop
  endfacet
  facet normal 0 0 -1
    outer loop
      vertex 1.61874 0 16.4601
      vertex 2.94126 4 16.4601
      vertex 2.94126 0 16.4601
    endloop
  endfacet
  facet normal -0 0 -1
    outer loop
      vertex 2.94126 4 16.4601
      vertex 1.61874 0 16.4601
      vertex 1.61874 4 16.4601
    endloop
  endfacet
  facet normal 0.587785 0 0.809017
    outer loop
      vertex 1.21006 4 15.2024
      vertex 2.28 0 14.425
      vertex 2.28 4 14.425
    endloop
  endfacet
  facet normal 0.587785 0 0.809017
    outer loop
      vertex 2.28 0 14.425
      vertex 1.21006 4 15.2024
      vertex 1.21006 0 15.2024
    endloop
  endfacet
  facet normal 0.951057 0 -0.309017
    outer loop
      vertex 1.61874 0 16.4601
      vertex 1.21006 4 15.2024
      vertex 1.61874 4 16.4601
    endloop
  endfacet
  facet normal 0.951057 0 -0.309017
    outer loop
      vertex 1.21006 4 15.2024
      vertex 1.61874 0 16.4601
      vertex 1.21006 0 15.2024
    endloop
  endfacet
  facet normal 1 -0 0
    outer loop
      vertex 5.6 0 16.9789
      vertex 5.6 4 16.85
      vertex 5.6 4 16.9789
    endloop
  endfacet
  facet normal 1 0 0
    outer loop
      vertex 5.6 4 16.85
      vertex 5.6 0 16.9789
      vertex 5.6 0 16.85
    endloop
  endfacet
  facet normal -0 0 1
    outer loop
      vertex 5.6 4 16.85
      vertex 22.23 0 16.85
      vertex 22.23 4 16.85
    endloop
  endfacet
  facet normal 0 0 1
    outer loop
      vertex 22.23 0 16.85
      vertex 5.6 4 16.85
      vertex 5.6 0 16.85
    endloop
  endfacet
  facet normal -0.707102 0 0.707112
    outer loop
      vertex 5.53553 4 16.9145
      vertex 5.6 0 16.9789
      vertex 5.6 4 16.9789
    endloop
  endfacet
  facet normal -0.707102 0 0.707112
    outer loop
      vertex 5.6 0 16.9789
      vertex 5.53553 4 16.9145
      vertex 5.53553 0 16.9145
    endloop
  endfacet
  facet normal 0.707107 0 0.707107
    outer loop
      vertex 2.6 4 19.85
      vertex 5.53553 0 16.9145
      vertex 5.53553 4 16.9145
    endloop
  endfacet
  facet normal 0.707107 0 0.707107
    outer loop
      vertex 5.53553 0 16.9145
      vertex 2.6 4 19.85
      vertex 2.6 0 19.85
    endloop
  endfacet
endsolid OpenSCAD_Model
